HIERARCHY
ROOT Hips
{
	OFFSET 0.000000 0.000000 0.000000
	CHANNELS 6 Xposition Yposition Zposition Zrotation Yrotation Xrotation 
	JOINT LHipJoint
	{
		OFFSET 0.000000 0.000000 0.000000
		CHANNELS 3 Zrotation Yrotation Xrotation
		JOINT LeftUpLeg
		{
			OFFSET 8.178360 -10.767780 5.035740
			CHANNELS 3 Zrotation Yrotation Xrotation
			JOINT LeftLeg
			{
				OFFSET 14.688660 -40.356780 0.000000
				CHANNELS 3 Zrotation Yrotation Xrotation
				JOINT LeftFoot
				{
					OFFSET 15.373200 -42.237540 0.000000
					CHANNELS 3 Zrotation Yrotation Xrotation
					JOINT LeftToeBase
					{
						OFFSET 0.945840 -2.598660 13.935300
						CHANNELS 3 Zrotation Yrotation Xrotation
						End Site
						{
							OFFSET 0.000000 0.000000 0.000000
						}
					}
				}
			}
		}
	}
	JOINT RHipJoint
	{
		OFFSET 0.000000 0.000000 0.000000
		CHANNELS 3 Zrotation Yrotation Xrotation
		JOINT RightUpLeg
		{
			OFFSET -7.833120 -10.767780 5.035740
			CHANNELS 3 Zrotation Yrotation Xrotation
			JOINT RightLeg
			{
				OFFSET -15.255180 -41.913300 0.000000
				CHANNELS 3 Zrotation Yrotation Xrotation
				JOINT RightFoot
				{
					OFFSET -15.409560 -42.337380 0.000000
					CHANNELS 3 Zrotation Yrotation Xrotation
					JOINT RightToeBase
					{
						OFFSET -0.988380 -2.715540 14.178900
						CHANNELS 3 Zrotation Yrotation Xrotation
						End Site
						{
							OFFSET 0.000000 0.000000 0.000000
						}
					}
				}
			}
		}
	}
	JOINT LowerBack
	{
		OFFSET 0.000000 0.000000 0.000000
		CHANNELS 3 Zrotation Yrotation Xrotation
		JOINT Spine
		{
			OFFSET 0.169620 12.213540 -1.160280
			CHANNELS 3 Zrotation Yrotation Xrotation
			JOINT Spine1
			{
				OFFSET 0.340320 12.293100 -0.256500
				CHANNELS 3 Zrotation Yrotation Xrotation
				JOINT Neck
				{
					OFFSET 0.000000 0.000000 0.000000
					CHANNELS 3 Zrotation Yrotation Xrotation
					JOINT Neck1
					{
						OFFSET -0.325020 10.477440 1.032120
						CHANNELS 3 Zrotation Yrotation Xrotation
						JOINT Head
						{
							OFFSET 0.624420 10.568160 -0.743820
							CHANNELS 3 Zrotation Yrotation Xrotation
							End Site
							{
								OFFSET 0.000000 0.000000 0.000000
							}
						}
					}
				}
				JOINT LeftShoulder
				{
					OFFSET 0.000000 0.000000 0.000000
					CHANNELS 3 Zrotation Yrotation Xrotation
					JOINT LeftArm
					{
						OFFSET 20.174460 7.205340 -1.867260
						CHANNELS 3 Zrotation Yrotation Xrotation
						JOINT LeftForeArm
						{
							OFFSET 29.898000 -0.000000 -0.000000
							CHANNELS 3 Zrotation Yrotation Xrotation
							JOINT LeftHand
							{
								OFFSET 20.901360 -0.000000 -0.000000
								CHANNELS 3 Zrotation Yrotation Xrotation
								JOINT LeftFingerBase
								{
									OFFSET 0.000000 0.000000 0.000000
									CHANNELS 3 Zrotation Yrotation Xrotation
									JOINT LeftHandIndex1
									{
										OFFSET 4.291560 -0.000000 -0.000000
										CHANNELS 3 Zrotation Yrotation Xrotation
										End Site
										{
											OFFSET 0.000000 0.000000 0.000000
										}
									}
								}
								JOINT LThumb
								{
									OFFSET 0.000000 0.000000 0.000000
									CHANNELS 3 Zrotation Yrotation Xrotation
									End Site
									{
										OFFSET 0.000000 0.000000 0.000000
									}
								}
							}
						}
					}
				}
				JOINT RightShoulder
				{
					OFFSET 0.000000 0.000000 0.000000
					CHANNELS 3 Zrotation Yrotation Xrotation
					JOINT RightArm
					{
						OFFSET -18.819600 8.244300 -2.427900
						CHANNELS 3 Zrotation Yrotation Xrotation
						JOINT RightForeArm
						{
							OFFSET -31.451400 -0.000000 -0.000000
							CHANNELS 3 Zrotation Yrotation Xrotation
							JOINT RightHand
							{
								OFFSET -20.665020 -0.000000 -0.000000
								CHANNELS 3 Zrotation Yrotation Xrotation
								JOINT RightFingerBase
								{
									OFFSET 0.000000 0.000000 0.000000
									CHANNELS 3 Zrotation Yrotation Xrotation
									JOINT RightHandIndex1
									{
										OFFSET -3.735180 -0.000000 -0.000000
										CHANNELS 3 Zrotation Yrotation Xrotation
										End Site
										{
											OFFSET 0.000000 0.000000 0.000000
										}
									}
								}
								JOINT RThumb
								{
									OFFSET 0.000000 0.000000 0.000000
									CHANNELS 3 Zrotation Yrotation Xrotation
									End Site
									{
										OFFSET 0.000000 0.000000 0.000000
									}
								}
							}
						}
					}
				}
			}
		}
	}
}
MOTION
Frames:	6
Frame Time:	0.0333333
12.977988 107.432586 10.327032 1.627965 -45.540739 -0.027704 0.230764 1.480963 1.171957 -20.444988 -6.917901 -19.847564 0.338107 7.790197 23.380624 2.528911 -10.490145 3.508878 3.480100 -11.434400 -33.759200 -3.248562 -2.594272 0.837567 26.807453 4.048678 -4.965000 -7.962132 -14.970015 52.441541 -2.286526 2.555501 28.702648 -0.567100 -4.822900 13.404100 0.803855 3.541357 6.315217 0.661018 4.428622 -1.343022 1.557894 2.647904 -3.375303 -8.282786 -1.966634 -9.933692 4.013107 -1.734419 15.488094 3.354200 -1.459100 9.683200 -7.894740 3.419576 -2.163577 -83.954862 5.483382 7.720355 8.357955 -16.012372 -1.228481 -1.170785 -3.141493 16.544009 11.936217 22.590953 5.411800 -7.125000 0.000000 0.000000 -18.921500 55.467700 -4.991400 5.846853 -2.423965 -2.284561 82.149157 -1.755827 13.179483 -15.222896 23.047992 -4.202330 0.857859 -0.604268 5.012287 -12.320133 12.945661 -3.126600 7.125000 0.000000 0.000000 9.708000 -16.314600 6.687700 
10.801008 107.253774 13.390722 4.290434 -46.386123 -2.383481 0.119720 1.601233 1.271480 -21.452320 -10.391333 -16.341187 -0.045718 6.925326 21.349964 2.186408 -9.217318 10.083888 0.000400 -0.133700 -0.367400 -3.428597 -2.540025 0.844647 23.651147 6.107266 -10.983032 -11.008391 -16.998581 61.949131 -2.693720 -2.543783 33.303556 -1.384600 -7.445400 21.041900 -0.906943 3.168151 6.551512 0.406062 3.809884 -1.249006 1.694844 2.326002 -3.141544 -7.707054 -1.928025 -11.062806 3.424274 -1.709235 15.955347 2.956000 -1.456500 10.134500 -7.940898 3.323815 -2.148967 -83.023216 4.751893 10.563506 8.049913 -15.470741 -1.117479 -1.230400 -3.118972 15.729947 12.613570 22.381369 5.724900 -7.125000 0.000000 0.000000 -18.003300 55.410200 -4.711700 5.889154 -2.470908 -2.316347 82.382500 -2.122304 14.026177 -15.006223 22.725503 -4.083572 0.883255 -0.582911 4.826264 -12.470051 12.670802 -3.100200 7.125000 0.000000 0.000000 9.593900 -16.601400 6.546100 
8.590956 107.815932 16.153128 4.687638 -46.617161 -2.826188 0.182406 1.747517 1.437483 -23.420498 -6.893347 -14.600229 0.249076 7.237236 22.417896 2.397809 -10.330666 4.005714 1.619900 -8.025000 -22.789900 -3.658756 -2.540503 0.857536 22.791771 6.496050 -16.690693 -12.896615 -18.078564 68.274692 -1.229624 -2.893315 23.487606 -0.884100 -5.993900 16.766800 -1.303573 2.618681 6.886403 0.384346 3.056877 -1.292963 1.799226 1.938830 -3.422578 -7.100955 -1.576873 -10.889837 2.914945 -1.347303 16.060904 2.642700 -1.298000 10.087400 -7.946538 3.211987 -2.117431 -82.124518 3.754736 11.759677 7.864330 -15.143477 -1.060712 -1.306642 -3.044618 16.785639 12.726494 22.135827 5.729700 -7.125000 0.000000 0.000000 -17.693800 55.159900 -4.517900 5.906553 -2.485788 -2.343126 82.715913 -2.771405 13.614805 -15.019987 22.719990 -4.077973 0.921108 -0.485992 5.365754 -12.956501 11.609831 -2.942700 7.125000 0.000000 0.000000 9.251900 -17.750600 6.070700 
6.402342 107.412996 18.866550 5.606678 -46.882962 -3.756676 0.012744 1.932382 1.587457 -23.957692 -8.502695 -10.590300 -0.333101 5.810430 18.695027 2.060274 -8.779708 8.880043 0.021000 0.936400 2.573700 -3.758644 -2.529759 0.884851 21.249482 6.903670 -22.256955 -14.042833 -18.749157 71.864738 -0.065652 -4.710839 14.507615 -0.269600 -3.339800 9.226200 -1.894196 2.219861 6.964144 0.303066 2.498215 -1.149161 1.925720 1.617485 -3.056880 -7.550367 -1.966133 -11.150847 3.061710 -1.770109 15.847281 2.764300 -1.504100 10.092400 -7.957481 3.171310 -2.077920 -81.789458 2.342232 11.465476 8.095760 -15.550013 -1.140277 -1.502820 -2.955545 17.305216 14.226076 21.737974 6.389300 -7.125000 0.000000 0.000000 -15.771300 55.076200 -3.975200 5.843417 -2.469381 -2.334074 83.096972 -3.284332 12.910992 -15.238622 23.033847 -4.176064 1.018879 -0.435387 4.792256 -13.862261 11.373067 -3.086200 7.125000 0.000000 0.000000 8.563200 -17.982600 5.563800 
4.185558 107.344410 21.502806 5.024369 -46.888645 -3.298936 0.080419 1.976894 1.601476 -23.902150 -9.247635 -9.314109 -0.004920 6.491842 20.717685 2.104217 -9.127025 6.911353 0.398100 4.051100 11.220600 -3.803529 -2.497588 0.928165 21.151580 7.307424 -26.576399 -13.568416 -18.818434 70.539750 0.379001 -5.374032 9.820921 -0.475900 -4.424000 12.272700 -1.550432 1.612366 7.071712 0.475776 1.738708 -1.148289 2.253771 1.213693 -3.066766 -7.944461 -2.211160 -11.095923 3.144335 -2.012183 15.559389 2.851500 -1.630700 9.990400 -7.896637 3.133671 -2.081870 -81.689740 1.424008 12.713045 8.567766 -16.403630 -1.343831 -1.423727 -2.981370 14.888963 14.578947 21.398212 6.483000 -7.125000 0.000000 0.000000 -15.171900 54.800100 -3.715900 5.814808 -2.438195 -2.333230 82.819317 -3.909430 12.673703 -15.294751 23.203735 -4.243050 0.931940 -0.472944 4.226135 -12.794138 11.989420 -2.999000 7.125000 0.000000 0.000000 9.357200 -17.372600 6.220400 
1.958364 106.837362 24.047208 5.262044 -46.051921 -3.450649 0.172307 1.984240 1.636311 -24.743237 -7.978418 -8.900332 0.364423 7.166403 22.813220 2.382298 -11.105332 5.555952 0.697400 5.338100 14.875500 -3.752862 -2.438008 0.945293 20.281897 7.541264 -29.915250 -12.101112 -18.474087 66.307437 0.320532 -3.899501 5.370320 -0.257100 -3.262100 9.009400 -1.842751 0.910428 7.494338 0.617590 0.792302 -1.273633 2.832414 0.743123 -3.578425 -8.220547 -2.272848 -10.820699 3.055287 -2.035167 15.472508 2.844100 -1.674600 9.925900 -7.797131 3.086508 -2.145189 -81.633354 1.042853 15.673838 9.354222 -17.819537 -1.692670 -1.230761 -3.119234 11.580515 14.443632 21.913980 6.548500 -7.125000 0.000000 0.000000 -15.635200 55.326000 -4.035500 5.778348 -2.406600 -2.346763 82.251276 -4.897352 12.103313 -15.236271 23.198706 -4.226993 0.923715 -0.493560 3.585786 -12.496361 12.360173 -3.022900 7.125000 0.000000 0.000000 9.565000 -16.985700 6.444600 
